<?xml version="1.0" encoding="utf-8"?>
<!-- Generator: Adobe Illustrator 23.0.5, SVG Export Plug-In . SVG Version: 6.00 Build 0)  -->
<svg version="1.1" xmlns="http://www.w3.org/2000/svg" xmlns:xlink="http://www.w3.org/1999/xlink" x="0px" y="0px"
	 viewBox="0 0 800 800" style="enable-background:new 0 0 800 800;" xml:space="preserve">
<style type="text/css">
	.st0{display:none;}
	.st1{fill:#FF0000;}
	.st2{fill:#FFFFFF;}
	.st3{fill:none;stroke:#FFFFFF;stroke-width:8;stroke-miterlimit:10;}
</style>
<g id="Layer_1" class="st0">
	
		<image style="display:inline;overflow:visible;" width="268" height="265" xlink:href="../../dls/ST. JOHN BAPTIST DE LA SALLE CATHOLIC SCHOOL WEBSITE/images/logo.png"  transform="matrix(2.6292 0 0 2.6292 48 52)">
	</image>
</g>
<g id="Layer_2">
	<ellipse class="st1" cx="409.5" cy="390" rx="352.5" ry="347"/>
</g>
<g id="Layer_3">
	<g>
		<path class="st2" d="M452,176l-33,173h-19l-22-173h23v-14l-19-23l26-0.4v-8.5c-6.4-2.3-11-8.4-11-15.6c0-9.1,7.4-16.5,16.5-16.5
			s16.5,7.4,16.5,16.5c0,6.8-4.1,12.6-10,15.2v8.8l27-0.4l-20,24v14H452z"/>
		<polygon class="st2" points="400,349 350,200 333,192 364,332 311,278 297,277 292,274 292,264 296,261 311,260 314,244 294,243 
			292,246 279,255 266,254 266,241 245,239 245,260 259,261 261,277 241,280 241,299 262,301 266,291 267,288 277,286 287,292 
			289,300 351,349 		"/>
		<polygon class="st2" points="421,349 471,200 488,192 457,332 510,278 524,277 529,274 529,264 525,261 510,260 507,244 527,243 
			529,246 542,255 555,254 555,241 576,239 576,260 562,261 560,277 580,280 580,299 559,301 555,291 554,288 544,286 534,292 
			532,300 470,349 		"/>
	</g>
	<g>
		<path class="st2" d="M449,610l-33-173h-19l-22,173h23v14l-19,23l26,0.4v8.5c-6.4,2.3-11,8.4-11,15.6c0,9.1,7.4,16.5,16.5,16.5
			s16.5-7.4,16.5-16.5c0-6.8-4.1-12.6-10-15.2v-8.8l27,0.4l-20-24v-14H449z"/>
		<polygon class="st2" points="397,437 347,586 330,594 361,454 308,508 294,509 289,512 289,522 293,525 308,526 311,542 291,543 
			289,540 276,531 263,532 263,545 242,547 242,526 256,525 258,509 238,506 238,487 259,485 263,495 264,498 274,500 284,494 
			286,486 348,437 		"/>
		<polygon class="st2" points="418,437 468,586 485,594 454,454 507,508 521,509 526,512 526,522 522,525 507,526 504,542 524,543 
			526,540 539,531 552,532 552,545 573,547 573,526 559,525 557,509 577,506 577,487 556,485 552,495 551,498 541,500 531,494 
			529,486 467,437 		"/>
	</g>
	<g>
		<path class="st2" d="M627,350l-173,33v19l173,22v-23h14l23,19l0.4-26h8.5c2.3,6.4,8.4,11,15.6,11c9.1,0,16.5-7.4,16.5-16.5
			s-7.4-16.5-16.5-16.5c-6.8,0-12.6,4.1-15.2,10h-8.8l0.4-27l-24,20h-14V350z"/>
		<polyline class="st2" points="454,451 454,402 603,452 611,469 471,438 		"/>
		<polyline class="st2" points="454,332 454,381 603,331 611,314 471,345 		"/>
	</g>
	<g>
		<path class="st2" d="M191,349l173,33v19l-173,22v-23h-14l-23,19l-0.4-26h-8.5c-2.3,6.4-8.4,11-15.6,11c-9.1,0-16.5-7.4-16.5-16.5
			s7.4-16.5,16.5-16.5c6.8,0,12.6,4.1,15.2,10h8.8l-0.4-27l24,20h14V349z"/>
		<polyline class="st2" points="364,450 364,401 215,451 207,468 347,437 		"/>
		<polyline class="st2" points="364,331 364,380 215,330 207,313 347,344 		"/>
	</g>
	<line class="st3" x1="362" y1="392" x2="454" y2="392"/>
	<line class="st3" x1="408" y1="346" x2="408" y2="438"/>
</g>
</svg>
